<svg width="76" height="52" viewBox="0 0 76 52" fill="none" xmlns="http://www.w3.org/2000/svg">
<path d="M66.097 0.0891113H9.197C4.126 0.0891113 0 4.21511 0 9.28611V42.0081C0 47.0791 4.126 51.2051 9.197 51.2051H66.097C71.168 51.2051 75.294 47.0791 75.294 42.0081V9.28711C75.295 4.21511 71.169 0.0891113 66.097 0.0891113ZM61.603 6.08911L37.647 21.5231L13.691 6.08911H61.603ZM66.097 45.2061H9.197C7.434 45.2061 6 43.7711 6 42.0091V9.45711L35.796 28.6171C35.836 28.6421 35.879 28.6591 35.92 28.6821C35.963 28.7061 36.007 28.7291 36.051 28.7511C36.282 28.8701 36.52 28.9661 36.763 29.0291C36.788 29.0361 36.813 29.0391 36.838 29.0451C37.105 29.1081 37.375 29.1471 37.645 29.1471C37.646 29.1471 37.647 29.1471 37.647 29.1471C37.649 29.1471 37.65 29.1471 37.651 29.1471C37.921 29.1471 38.191 29.1091 38.458 29.0451C38.483 29.0391 38.508 29.0361 38.533 29.0291C38.776 28.9661 39.013 28.8701 39.245 28.7511C39.289 28.7291 39.333 28.7061 39.376 28.6821C39.417 28.6591 39.46 28.6421 39.5 28.6171L69.296 9.45711V42.0081C69.295 43.7711 67.86 45.2061 66.097 45.2061Z" fill="#515151"/>
</svg>
