<svg width="54" height="54" viewBox="0 0 54 54" fill="none" xmlns="http://www.w3.org/2000/svg">
<path d="M53.3639 40.9079C51.3559 37.1119 44.3829 32.9959 44.0759 32.8159C43.1799 32.3059 42.2449 32.0359 41.3699 32.0359C40.0689 32.0359 39.0039 32.6319 38.3589 33.7159C37.3389 34.9359 36.0739 36.3619 35.7669 36.5829C33.3909 38.1949 31.5309 38.0119 29.4729 35.9539L17.9869 24.4669C15.9419 22.4219 15.7539 20.5389 17.3549 18.1759C17.5789 17.8669 19.0049 16.6009 20.2249 15.5799C21.0029 15.1169 21.5369 14.4289 21.7709 13.5849C22.0819 12.4619 21.8529 11.1409 21.1189 9.85391C20.9459 9.55791 16.8279 2.58391 13.0339 0.576906C12.3259 0.201906 11.5279 0.00390625 10.7279 0.00390625C9.40991 0.00390625 8.16991 0.517906 7.23791 1.44891L4.69991 3.98591C0.685907 7.99891 -0.767093 12.5479 0.378907 17.5059C1.33491 21.6379 4.12091 26.0349 8.66091 30.5739L23.3659 45.2789C29.1119 51.0249 34.5899 53.9389 39.6479 53.9389C39.6479 53.9389 39.6479 53.9389 39.6489 53.9389C43.3689 53.9389 46.8369 52.3579 49.9539 49.2409L52.4909 46.7039C54.0329 45.1629 54.3829 42.8329 53.3639 40.9079Z" fill="#515151"/>
</svg>
