<svg width="14" height="20" viewBox="0 0 14 20" fill="none" xmlns="http://www.w3.org/2000/svg">
<path d="M13 0H1C0.734784 0 0.48043 0.105357 0.292893 0.292893C0.105357 0.48043 0 0.734784 0 1V14H14V1C14 0.734784 13.8946 0.48043 13.7071 0.292893C13.5196 0.105357 13.2652 0 13 0V0ZM0 19C0 19.2652 0.105357 19.5196 0.292893 19.7071C0.48043 19.8946 0.734784 20 1 20H13C13.2652 20 13.5196 19.8946 13.7071 19.7071C13.8946 19.5196 14 19.2652 14 19V16H0V19ZM7 16.53C7.19778 16.53 7.39112 16.5886 7.55557 16.6985C7.72002 16.8084 7.84819 16.9646 7.92388 17.1473C7.99957 17.33 8.01937 17.5311 7.98079 17.7251C7.9422 17.9191 7.84696 18.0973 7.70711 18.2371C7.56725 18.377 7.38907 18.4722 7.19509 18.5108C7.00111 18.5494 6.80004 18.5296 6.61732 18.4539C6.43459 18.3782 6.27841 18.25 6.16853 18.0856C6.05865 17.9211 6 17.7278 6 17.53C6 17.2648 6.10536 17.0104 6.29289 16.8229C6.48043 16.6354 6.73478 16.53 7 16.53V16.53Z" fill="white"/>
</svg>
