<svg width="55" height="61" viewBox="0 0 55 61" fill="none" xmlns="http://www.w3.org/2000/svg">
<path d="M28 18C20.27 18 14 24.27 14 32C14 42.5 28 58 28 58C28 58 42 42.5 42 32C42 24.27 35.73 18 28 18ZM28 37C25.24 37 23 34.76 23 32C23 29.24 25.24 27 28 27C30.76 27 33 29.24 33 32C33 34.76 30.76 37 28 37Z" fill="#484848"/>
<path d="M13.6811 8V2.18182H15.647C16.1035 2.18182 16.4766 2.2642 16.7663 2.42898C17.058 2.59186 17.2739 2.8125 17.4141 3.09091C17.5542 3.36932 17.6243 3.67992 17.6243 4.02273C17.6243 4.36553 17.5542 4.67708 17.4141 4.95739C17.2758 5.23769 17.0618 5.46117 16.772 5.62784C16.4822 5.79261 16.111 5.875 15.6584 5.875H14.2493V5.25H15.6357C15.9482 5.25 16.1991 5.19602 16.3885 5.08807C16.5779 4.98011 16.7152 4.83428 16.8004 4.65057C16.8875 4.46496 16.9311 4.25568 16.9311 4.02273C16.9311 3.78977 16.8875 3.58144 16.8004 3.39773C16.7152 3.21402 16.5769 3.07008 16.3857 2.96591C16.1944 2.85985 15.9406 2.80682 15.6243 2.80682H14.3857V8H13.6811ZM18.6683 8V3.63636H19.3388V8H18.6683ZM19.0092 2.90909C18.8786 2.90909 18.7659 2.86458 18.6712 2.77557C18.5784 2.68655 18.532 2.57955 18.532 2.45455C18.532 2.32955 18.5784 2.22254 18.6712 2.13352C18.7659 2.04451 18.8786 2 19.0092 2C19.1399 2 19.2517 2.04451 19.3445 2.13352C19.4392 2.22254 19.4865 2.32955 19.4865 2.45455C19.4865 2.57955 19.4392 2.68655 19.3445 2.77557C19.2517 2.86458 19.1399 2.90909 19.0092 2.90909ZM22.3281 9.72727C22.0043 9.72727 21.7259 9.68561 21.4929 9.60227C21.2599 9.52083 21.0658 9.41288 20.9105 9.27841C20.7571 9.14583 20.6349 9.00379 20.544 8.85227L21.0781 8.47727C21.1387 8.55682 21.2154 8.64773 21.3082 8.75C21.401 8.85417 21.5279 8.94413 21.6889 9.01989C21.8518 9.09754 22.0649 9.13636 22.3281 9.13636C22.6804 9.13636 22.9711 9.05114 23.2003 8.88068C23.4295 8.71023 23.544 8.44318 23.544 8.07955V7.19318H23.4872C23.438 7.27273 23.3679 7.37121 23.277 7.48864C23.188 7.60417 23.0592 7.70739 22.8906 7.7983C22.724 7.88731 22.4986 7.93182 22.2145 7.93182C21.8622 7.93182 21.5459 7.84848 21.2656 7.68182C20.9872 7.51515 20.7666 7.27273 20.6037 6.95455C20.4427 6.63636 20.3622 6.25 20.3622 5.79545C20.3622 5.34848 20.4408 4.95928 20.598 4.62784C20.7552 4.29451 20.974 4.03693 21.2543 3.85511C21.5346 3.6714 21.8584 3.57955 22.2259 3.57955C22.5099 3.57955 22.7353 3.62689 22.902 3.72159C23.0705 3.81439 23.1993 3.92045 23.2884 4.03977C23.3793 4.1572 23.4493 4.25379 23.4986 4.32955H23.5668V3.63636H24.2145V8.125C24.2145 8.5 24.1293 8.80492 23.9588 9.03977C23.7902 9.27652 23.563 9.44981 23.277 9.55966C22.9929 9.6714 22.6766 9.72727 22.3281 9.72727ZM22.3054 7.32955C22.5743 7.32955 22.8016 7.26799 22.9872 7.14489C23.1728 7.02178 23.3139 6.8447 23.4105 6.61364C23.5071 6.38258 23.5554 6.10606 23.5554 5.78409C23.5554 5.4697 23.508 5.19223 23.4134 4.9517C23.3187 4.71117 23.1785 4.52273 22.9929 4.38636C22.8073 4.25 22.5781 4.18182 22.3054 4.18182C22.0213 4.18182 21.7846 4.25379 21.5952 4.39773C21.4077 4.54167 21.2666 4.73485 21.1719 4.97727C21.0791 5.2197 21.0327 5.48864 21.0327 5.78409C21.0327 6.08712 21.08 6.35511 21.1747 6.58807C21.2713 6.81913 21.4134 7.00095 21.6009 7.13352C21.7902 7.2642 22.0251 7.32955 22.3054 7.32955ZM25.4418 8V3.63636H26.0895V4.31818H26.1463C26.2372 4.08523 26.384 3.90436 26.5866 3.77557C26.7893 3.64489 27.0327 3.57955 27.3168 3.57955C27.6046 3.57955 27.8442 3.64489 28.0355 3.77557C28.2287 3.90436 28.3793 4.08523 28.4872 4.31818H28.5327C28.6444 4.0928 28.812 3.91383 29.0355 3.78125C29.259 3.64678 29.527 3.57955 29.8395 3.57955C30.2296 3.57955 30.5488 3.7017 30.7969 3.94602C31.045 4.18845 31.169 4.56629 31.169 5.07955V8H30.4986V5.07955C30.4986 4.75758 30.4105 4.52746 30.2344 4.3892C30.0582 4.25095 29.8509 4.18182 29.6122 4.18182C29.3054 4.18182 29.0677 4.27462 28.8991 4.46023C28.7306 4.64394 28.6463 4.87689 28.6463 5.15909V8H27.9645V5.01136C27.9645 4.76326 27.884 4.56345 27.723 4.41193C27.562 4.25852 27.3546 4.18182 27.1009 4.18182C26.9266 4.18182 26.7637 4.22822 26.6122 4.32102C26.4626 4.41383 26.3414 4.54261 26.2486 4.70739C26.1577 4.87027 26.1122 5.05871 26.1122 5.27273V8H25.4418ZM34.2244 8.09091C33.804 8.09091 33.4413 7.99811 33.1364 7.8125C32.8333 7.625 32.5994 7.36364 32.4347 7.02841C32.2718 6.69129 32.1903 6.29924 32.1903 5.85227C32.1903 5.4053 32.2718 5.01136 32.4347 4.67045C32.5994 4.32765 32.8286 4.06061 33.1222 3.86932C33.4176 3.67614 33.7623 3.57955 34.1562 3.57955C34.3835 3.57955 34.608 3.61742 34.8295 3.69318C35.0511 3.76894 35.2528 3.89205 35.4347 4.0625C35.6165 4.23106 35.7614 4.45455 35.8693 4.73295C35.9773 5.01136 36.0312 5.35417 36.0312 5.76136V6.04545H32.6676V5.46591H35.3494C35.3494 5.2197 35.3002 5 35.2017 4.80682C35.1051 4.61364 34.9669 4.46117 34.7869 4.34943C34.6089 4.23769 34.3987 4.18182 34.1562 4.18182C33.8892 4.18182 33.6581 4.24811 33.4631 4.38068C33.2699 4.51136 33.1212 4.68182 33.017 4.89205C32.9129 5.10227 32.8608 5.32765 32.8608 5.56818V5.95455C32.8608 6.28409 32.9176 6.56345 33.0312 6.79261C33.1468 7.01989 33.3068 7.19318 33.5114 7.3125C33.7159 7.42992 33.9536 7.48864 34.2244 7.48864C34.4006 7.48864 34.5597 7.46402 34.7017 7.41477C34.8456 7.36364 34.9697 7.28788 35.0739 7.1875C35.178 7.08523 35.2585 6.95833 35.3153 6.80682L35.9631 6.98864C35.8949 7.20833 35.7803 7.40152 35.6193 7.56818C35.4583 7.73295 35.2595 7.86174 35.0227 7.95455C34.786 8.04545 34.5199 8.09091 34.2244 8.09091ZM37.7216 5.375V8H37.0511V3.63636H37.6989V4.31818H37.7557C37.858 4.09659 38.0133 3.91856 38.2216 3.78409C38.4299 3.64773 38.6989 3.57955 39.0284 3.57955C39.3239 3.57955 39.5824 3.64015 39.804 3.76136C40.0256 3.88068 40.1979 4.0625 40.321 4.30682C40.4441 4.54924 40.5057 4.85606 40.5057 5.22727V8H39.8352V5.27273C39.8352 4.92992 39.7462 4.66288 39.5682 4.47159C39.3902 4.27841 39.1458 4.18182 38.8352 4.18182C38.6212 4.18182 38.4299 4.22822 38.2614 4.32102C38.0947 4.41383 37.9631 4.54924 37.8665 4.72727C37.7699 4.9053 37.7216 5.12121 37.7216 5.375ZM43.6286 3.63636V4.20455H41.3672V3.63636H43.6286ZM42.0263 2.59091H42.6967V6.75C42.6967 6.93939 42.7242 7.08144 42.7791 7.17614C42.8359 7.26894 42.9079 7.33144 42.995 7.36364C43.084 7.39394 43.1778 7.40909 43.2763 7.40909C43.3501 7.40909 43.4107 7.4053 43.4581 7.39773C43.5054 7.38826 43.5433 7.38068 43.5717 7.375L43.7081 7.97727C43.6626 7.99432 43.5992 8.01136 43.5178 8.02841C43.4363 8.04735 43.3331 8.05682 43.2081 8.05682C43.0187 8.05682 42.8331 8.0161 42.6513 7.93466C42.4714 7.85322 42.3217 7.72917 42.2024 7.5625C42.085 7.39583 42.0263 7.18561 42.0263 6.93182V2.59091ZM17.1147 18V12.1818H17.8192V14.7727H20.9215V12.1818H21.6261V18H20.9215V15.3977H17.8192V18H17.1147ZM24.7184 18.0909C24.3245 18.0909 23.9788 17.9972 23.6815 17.8097C23.386 17.6222 23.1549 17.3598 22.9883 17.0227C22.8235 16.6856 22.7411 16.2917 22.7411 15.8409C22.7411 15.3864 22.8235 14.9896 22.9883 14.6506C23.1549 14.3116 23.386 14.0483 23.6815 13.8608C23.9788 13.6733 24.3245 13.5795 24.7184 13.5795C25.1123 13.5795 25.457 13.6733 25.7525 13.8608C26.0498 14.0483 26.2809 14.3116 26.4457 14.6506C26.6123 14.9896 26.6957 15.3864 26.6957 15.8409C26.6957 16.2917 26.6123 16.6856 26.4457 17.0227C26.2809 17.3598 26.0498 17.6222 25.7525 17.8097C25.457 17.9972 25.1123 18.0909 24.7184 18.0909ZM24.7184 17.4886C25.0176 17.4886 25.2638 17.4119 25.457 17.2585C25.6502 17.1051 25.7932 16.9034 25.886 16.6534C25.9788 16.4034 26.0252 16.1326 26.0252 15.8409C26.0252 15.5492 25.9788 15.2775 25.886 15.0256C25.7932 14.7737 25.6502 14.5701 25.457 14.4148C25.2638 14.2595 25.0176 14.1818 24.7184 14.1818C24.4192 14.1818 24.1729 14.2595 23.9798 14.4148C23.7866 14.5701 23.6436 14.7737 23.5508 15.0256C23.458 15.2775 23.4116 15.5492 23.4116 15.8409C23.4116 16.1326 23.458 16.4034 23.5508 16.6534C23.6436 16.9034 23.7866 17.1051 23.9798 17.2585C24.1729 17.4119 24.4192 17.4886 24.7184 17.4886ZM30.4691 16.2159V13.6364H31.1396V18H30.4691V17.2614H30.4237C30.3214 17.483 30.1623 17.6714 29.9464 17.8267C29.7305 17.9801 29.4577 18.0568 29.1282 18.0568C28.8555 18.0568 28.613 17.9972 28.4009 17.8778C28.1888 17.7566 28.0221 17.5748 27.9009 17.3324C27.7797 17.0881 27.7191 16.7803 27.7191 16.4091V13.6364H28.3896V16.3636C28.3896 16.6818 28.4786 16.9356 28.6566 17.125C28.8365 17.3144 29.0657 17.4091 29.3441 17.4091C29.5108 17.4091 29.6803 17.3665 29.8526 17.2812C30.0269 17.196 30.1727 17.0653 30.2901 16.8892C30.4094 16.7131 30.4691 16.4886 30.4691 16.2159ZM35.4585 14.6136L34.8562 14.7841C34.8183 14.6837 34.7624 14.5862 34.6886 14.4915C34.6166 14.3949 34.5181 14.3153 34.3931 14.2528C34.2681 14.1903 34.1081 14.1591 33.913 14.1591C33.646 14.1591 33.4234 14.2206 33.2454 14.3438C33.0692 14.465 32.9812 14.6193 32.9812 14.8068C32.9812 14.9735 33.0418 15.1051 33.163 15.2017C33.2842 15.2983 33.4736 15.3788 33.7312 15.4432L34.3789 15.6023C34.7691 15.697 35.0598 15.8419 35.2511 16.0369C35.4424 16.2301 35.538 16.4792 35.538 16.7841C35.538 17.0341 35.466 17.2576 35.3221 17.4545C35.18 17.6515 34.9812 17.8068 34.7255 17.9205C34.4698 18.0341 34.1725 18.0909 33.8335 18.0909C33.3884 18.0909 33.02 17.9943 32.7283 17.8011C32.4367 17.608 32.252 17.3258 32.1744 16.9545L32.8107 16.7955C32.8713 17.0303 32.9859 17.2064 33.1545 17.3239C33.3249 17.4413 33.5475 17.5 33.8221 17.5C34.1346 17.5 34.3827 17.4337 34.5664 17.3011C34.752 17.1667 34.8448 17.0057 34.8448 16.8182C34.8448 16.6667 34.7918 16.5398 34.6857 16.4375C34.5797 16.3333 34.4168 16.2557 34.1971 16.2045L33.4698 16.0341C33.0702 15.9394 32.7766 15.7926 32.5891 15.5938C32.4035 15.393 32.3107 15.142 32.3107 14.8409C32.3107 14.5947 32.3799 14.3769 32.5181 14.1875C32.6583 13.9981 32.8486 13.8494 33.0891 13.7415C33.3316 13.6335 33.6062 13.5795 33.913 13.5795C34.3448 13.5795 34.6838 13.6742 34.93 13.8636C35.1781 14.053 35.3543 14.303 35.4585 14.6136ZM38.3768 18.0909C37.9563 18.0909 37.5936 17.9981 37.2887 17.8125C36.9857 17.625 36.7518 17.3636 36.587 17.0284C36.4241 16.6913 36.3427 16.2992 36.3427 15.8523C36.3427 15.4053 36.4241 15.0114 36.587 14.6705C36.7518 14.3277 36.9809 14.0606 37.2745 13.8693C37.57 13.6761 37.9147 13.5795 38.3086 13.5795C38.5359 13.5795 38.7603 13.6174 38.9819 13.6932C39.2035 13.7689 39.4052 13.892 39.587 14.0625C39.7688 14.2311 39.9137 14.4545 40.0217 14.733C40.1296 15.0114 40.1836 15.3542 40.1836 15.7614V16.0455H36.82V15.4659H39.5018C39.5018 15.2197 39.4525 15 39.354 14.8068C39.2575 14.6136 39.1192 14.4612 38.9393 14.3494C38.7612 14.2377 38.551 14.1818 38.3086 14.1818C38.0415 14.1818 37.8105 14.2481 37.6154 14.3807C37.4222 14.5114 37.2736 14.6818 37.1694 14.892C37.0652 15.1023 37.0131 15.3277 37.0131 15.5682V15.9545C37.0131 16.2841 37.07 16.5634 37.1836 16.7926C37.2991 17.0199 37.4592 17.1932 37.6637 17.3125C37.8683 17.4299 38.1059 17.4886 38.3768 17.4886C38.5529 17.4886 38.712 17.464 38.854 17.4148C38.998 17.3636 39.122 17.2879 39.2262 17.1875C39.3304 17.0852 39.4109 16.9583 39.4677 16.8068L40.1154 16.9886C40.0472 17.2083 39.9326 17.4015 39.7717 17.5682C39.6107 17.733 39.4118 17.8617 39.1751 17.9545C38.9383 18.0455 38.6722 18.0909 38.3768 18.0909Z" fill="black"/>
</svg>
